<?xml version="1.0" standalone="no"?>
<!DOCTYPE svg PUBLIC "-//W3C//DTD SVG 20010904//EN"
 "http://www.w3.org/TR/2001/REC-SVG-20010904/DTD/svg10.dtd">
<svg version="1.0" xmlns="http://www.w3.org/2000/svg"
 width="512.000000pt" height="512.000000pt" viewBox="0 0 512.000000 512.000000"
 preserveAspectRatio="xMidYMid meet">
<metadata>
Created by potrace 1.14, written by Peter Selinger 2001-2017
</metadata>
<g transform="translate(0.000000,512.000000) scale(0.100000,-0.100000)"
fill="#000000" stroke="none">
<path d="M240 2561 l0 -891 220 0 220 0 0 304 0 304 213 5 c124 3 234 11 266
19 l55 13 43 135 c24 74 89 272 143 440 l100 304 -27 39 c-36 51 -119 119
-186 150 -122 58 -136 60 -609 64 l-438 5 0 -891z m775 525 c86 -37 124 -101
125 -210 0 -85 -14 -134 -52 -180 -44 -53 -106 -70 -268 -70 l-135 -1 -3 230
c-1 126 0 236 3 243 8 22 276 12 330 -12z"/>
<path d="M2318 3393 c-9 -27 -60 -183 -113 -348 -204 -629 -241 -739 -250
-741 -6 -2 -66 109 -135 246 -68 137 -127 247 -129 244 -5 -5 -34 -91 -140
-424 -40 -124 -77 -237 -83 -253 -9 -24 -4 -38 49 -130 33 -56 86 -148 119
-204 l59 -103 233 3 233 2 98 295 c53 162 128 391 167 508 38 116 72 212 76
212 7 0 38 -94 206 -635 l119 -380 234 -3 234 -2 32 82 c17 46 99 250 181 453
194 481 483 1196 489 1213 4 10 -43 12 -227 10 l-233 -3 -149 -350 c-82 -192
-157 -368 -167 -390 -10 -22 -51 -120 -92 -217 -41 -98 -78 -176 -83 -175 -9
3 -7 -2 -213 679 l-138 458 -180 0 -180 0 -17 -47z"/>
<path d="M4180 3145 l-113 -285 56 -157 c31 -87 72 -202 91 -257 20 -54 36
-102 36 -107 0 -5 -89 -10 -197 -11 l-197 -3 -63 -155 c-34 -85 -62 -161 -63
-167 0 -10 73 -13 317 -15 l316 -3 57 -155 56 -155 242 -3 241 -2 -34 92 c-18
51 -66 179 -105 283 -40 105 -124 327 -187 495 -63 168 -133 352 -155 410 -22
58 -44 116 -48 130 -12 37 -130 343 -134 347 -1 2 -53 -125 -116 -282z"/>
</g>
</svg>
